{"title":"Red Planet(2000)MP-4[Dascubadude]","uid":12344824,"size":1304065882,"categoryP":"video","categoryS":"movies","magnet":"?xt=urn:btih:5bd2c80fd5bfcc377a01a9ea966dff5521e44684&amp;dn=Red+Planet%282000%29MP-4%5BDascubadude%5D&amp;tr=udp%3A%2F%2Ftracker.openbittorrent.com%3A80&amp;tr=udp%3A%2F%2Fopen.demonii.com%3A1337&amp;tr=udp%3A%2F%2Ftracker.coppersurfer.tk%3A6969&amp;tr=udp%3A%2F%2Fexodus.desync.com%3A6969","seeders":4,"leechers":0,"uploader":"dascuba","files":1,"time":1441337123,"description":"Red Planet (2000)\nPG-13  |  106 min  |  Action, Sci-Fi, Thriller  |  10 November 2000 (USA)\n5.6 Your rating:   -/10   Ratings: 5.6/10 from 45,196 users   Metascore: 34/100 \nReviews: 346 user | 144 critic | 27 from Metacritic.com\nAstronauts, and their robotic dog AMME, search for solutions to save a dying Earth by searching on Mars, only to have the mission go terribly awry.\n\nDirector: Antony Hoffman\nWriters: Chuck Pfarrer (story), Chuck Pfarrer (screenplay), 1 more credit Â»\nStars: Val Kilmer, Carrie-Anne Moss, Tom Sizemore \n\nGeneral\nComplete name                            : C:Red PlanetRED_PLANET_Title1.mp4\nFormat                                   : MPEG-4\nFormat profile                           : Base Media\nCodec ID                                 : isom\nFile size                                : 1.21 GiB\nDuration                                 : 1h 46mn\nOverall bit rate mode                    : Constant\nOverall bit rate                         : 1 634 Kbps\nMovie name                               : RED_PLANET\nGenre                                    : Science_Fiction\nWriting application                      : Lavf54.6.100\n\nVideo\nID                                       : 1\nFormat                                   : MPEG-4 Visual\nFormat settings, BVOP                    : No\nFormat settings, QPel                    : No\nFormat settings, GMC                     : No warppoints\nFormat settings, Matrix                  : Default (H.263)\nCodec ID                                 : 20\nDuration                                 : 1h 46mn\nBit rate mode                            : Constant\nBit rate                                 : 1 500 Kbps\nWidth                                    : 720 pixels\nHeight                                   : 404 pixels\nDisplay aspect ratio                     : 16:9\nFrame rate mode                          : Constant\nFrame rate                               : 29.970 fps\nColor space                              : YUV\nChroma subsampling                       : 4:2:0\nBit depth                                : 8 bits\nScan type                                : Progressive\nCompression mode                         : Lossy\nBits/(Pixel*Frame)                       : 0.172\nStream size                              : 1.12 GiB (92%)\nWriting library                          : Lavc54.23.100\n\nAudio\nID                                       : 2\nFormat                                   : MPEG Audio\nFormat version                           : Version 1\nFormat profile                           : Layer 3\nCodec ID                                 : 6B\nDuration                                 : 1h 46mn\nBit rate mode                            : Constant\nBit rate                                 : 128 Kbps\nChannel(s)                               : 2 channels\nSampling rate                            : 44.1 KHz\nCompression mode                         : Lossy\nStream size                              : 97.4 MiB (8%)","torrent":{"xt":"urn:btih:5bd2c80fd5bfcc377a01a9ea966dff5521e44684","amp;dn":"Red+Planet%282000%29MP-4%5BDascubadude%5D","amp;tr":["udp%3A%2F%2Ftracker.openbittorrent.com%3A80","udp%3A%2F%2Fopen.demonii.com%3A1337","udp%3A%2F%2Ftracker.coppersurfer.tk%3A6969","udp%3A%2F%2Fexodus.desync.com%3A6969"],"infoHash":"5bd2c80fd5bfcc377a01a9ea966dff5521e44684","infoHashBuffer":{"type":"Buffer","data":[91,210,200,15,213,191,204,55,122,1,169,234,150,109,255,85,33,228,70,132]},"announce":[],"urlList":[]}}